<svg width="624" height="373" viewBox="0 0 624 373" fill="none" xmlns="http://www.w3.org/2000/svg">
<g filter="url(#filter0_d_1_14)">
<path d="M276.772 355.281V356.281H277.772V355.281H276.772ZM276.772 21.7837V20.7837H275.772V21.7837H276.772ZM596.899 21.7837C596.899 24.7292 599.287 27.117 602.233 27.117C605.178 27.117 607.566 24.7292 607.566 21.7837C607.566 18.8382 605.178 16.4504 602.233 16.4504C599.287 16.4504 596.899 18.8382 596.899 21.7837ZM2.20605 355.281V356.281H276.772V355.281V354.281H2.20605V355.281ZM276.772 355.281H277.772V21.7837H276.772H275.772V355.281H276.772ZM276.772 21.7837V22.7837H602.233V21.7837V20.7837H276.772V21.7837Z" fill="#40DDE3"/>
</g>
<defs>
<filter id="filter0_d_1_14" x="-13.7939" y="0.450348" width="637.36" height="371.83" filterUnits="userSpaceOnUse" color-interpolation-filters="sRGB">
<feFlood flood-opacity="0" result="BackgroundImageFix"/>
<feColorMatrix in="SourceAlpha" type="matrix" values="0 0 0 0 0 0 0 0 0 0 0 0 0 0 0 0 0 0 127 0" result="hardAlpha"/>
<feOffset/>
<feGaussianBlur stdDeviation="8"/>
<feComposite in2="hardAlpha" operator="out"/>
<feColorMatrix type="matrix" values="0 0 0 0 0.270588 0 0 0 0 0.968627 0 0 0 0 0.980392 0 0 0 1 0"/>
<feBlend mode="normal" in2="BackgroundImageFix" result="effect1_dropShadow_1_14"/>
<feBlend mode="normal" in="SourceGraphic" in2="effect1_dropShadow_1_14" result="shape"/>
</filter>
</defs>
</svg>
